{"title":"Stalker.S01E06.DKSubs.Hardcoded.720p.HDTV-pir8","uid":11683325,"size":701688128,"categoryP":"video","categoryS":"hd___tv_shows","magnet":"?xt=urn:btih:39dcfb3ebac7f4c66a74b36125e15b55c8eb714f&amp;dn=Stalker.S01E06.DKSubs.Hardcoded.720p.HDTV-pir8&amp;tr=udp%3A%2F%2Ftracker.openbittorrent.com%3A80&amp;tr=udp%3A%2F%2Fopen.demonii.com%3A1337&amp;tr=udp%3A%2F%2Ftracker.coppersurfer.tk%3A6969&amp;tr=udp%3A%2F%2Fexodus.desync.com%3A6969","seeders":1,"leechers":0,"uploader":"z97","files":2,"time":1423197829,"description":"                        .:L5ZOMOZ1L:                        \n                    iSB@B@B@B@B@B@B@@@MF:                   \n                vM@B@@@O5r:.    ..:rFM@B@B@M7               \n             rB@B@BL.                   ,1@@B@Mi            \n           L@B@Br                           vB@B@7          \n         vB@B0     @B:                        .8@@@r        \n        @B@0       B@:                          .O@@@       \n      7@B@,        @@ur1P8OB@@B@MMZPu7,           :@B@i     \n     S@BG       :jNB@@@B@B@B@B@B@B@@@B@B@0r         BB@j    \n    P@B1           @B: ,j@B@MMOOOMOMOMM@B@B@0.       NB@U   \n   j@B1            B@,    .O@BM8O8OOOOOOMOBB@BX       NB@7  \n  :@BO             @Bi      7@BMOOOOOO8OOOOMM@B@       @B@  \n  @B@              B@:       v@MM8O8O8O8O8O8OOBB8       @B@ \n :B@7              @Bi        B@OOOO8OOO8OOMOOO@B,      u@B \n Z@B               B@:        0BM8O8OOO8OOOOO8MM@F       @@L\n @@0               @Bi        0@OOOOOO8O8OOOOO8MBM       MBZ\njB@r               B@:        @BM8O8O8O8O8O8O8OM@O       j@8\n0@B:               @Bi       rBM8O8O8O8MOMOOOMO@Bi       7BM\nEB@:               B@:      iB@OM8O8O8O8MOMOBB@@v        r@O\nL@Bv               @@:     ZB@OMOMOMOMOMM@@@B@P          UBO\n.B@0               B@.  :Z@BBMMMBM@B@B@B@B@ki            O@N\n Z@@               @Brr@@@B@@@B@@@B@B0jr.                @BL\n ,@BL              B@@@B@B@B81vi,                       5B@ \n  B@@             .@B@BOr.                              B@M \n  ,B@O            @B@G                                 B@B  \n   LB@S           B@2                                 Z@Br  \n    SB@F          @@                                 Z@@Y   \n     1@@O         BL                                B@Bv    \n      rB@@:       M7                              rB@B:     \n        B@BM      ,J                            .@@@O       \n         r@B@Z,    .                          :M@@@:        \n           vB@B@L                           Y@@@Br          \n             :M@@B@2:                   ik@@@@8:            \n                iOB@@@@B5v::.. ..::vFBB@@@BZi               \n                    .;5O@B@B@B@B@B@B@O1i.                   \n\n\nâ–ˆâ–€------------------------------------------------------------â–€â–ˆ\nâ–ˆ                        RELEASE NOTES                         â–ˆ \nâ–ˆâ–„------------------------------------------------------------â–„â–ˆ                                      \n\n                   Stalker Season 1 Episode 6\n            \niMDB url                       : http://www.imdb.com/title/tt3560094\niMDB Rating                    : 7.6/10 from 6,711 users\nAirdate                        : 2015 - February 5th.\nGenre                          : Thriller | Drama\nSource                         : DVB-C / 1080p / 25 FPS\nSubs                           : Hardcoded\n\n\nâ–ˆâ–€------------------------------------------------------------â–€â–ˆ\nâ–ˆ                        PLOT SUMMARY                          â–ˆ\nâ–ˆâ–„------------------------------------------------------------â–„â–ˆ                                      \n\nEfter at en raekke alarmerende haendelser har ramt en velhavende\nfilantrop, efterforsker enheden hendes plagede eksmand og dennes\nmeget yngre kaereste. Amanda truer med at afslore Jacks dunkle\nfortid.\n\nâ–ˆâ–€------------------------------------------------------------â–€â–ˆ\nâ–ˆ                     RELEASE INFORMATION                      â–ˆ\nâ–ˆâ–„------------------------------------------------------------â–„â–ˆ\n\n\nVideo\nID                             : 1\nFormat                         : AVC\nFormat/Info                    : Advanced Video Codec\nFormat profile                 : &lt;a class=&quot;__cf_email__&quot; href=&quot;/cdn-cgi/l/email-protection&quot; data-cfemail=&quot;551d3c323d1519617b65&quot;&gt;[email&amp;#160;protected]&lt;/a&gt;&lt;script cf-hash='f9e31' type=&quot;text/javascript&quot;&gt;\n/* &lt;![CDATA[ */!function(){try{var t=&quot;currentScript&quot;in document?document.currentScript:function(){for(var t=document.getElementsByTagName(&quot;script&quot;),e=t.length;e--;)if(t[e].getAttribute(&quot;cf-hash&quot;))return t[e]}();if(t&amp;&amp;t.previousSibling){var e,r,n,i,c=t.previousSibling,a=c.getAttribute(&quot;data-cfemail&quot;);if(a){for(e=&quot;&quot;,r=parseInt(a.substr(0,2),16),n=2;a.length-n;n+=2)i=parseInt(a.substr(n,2),16)^r,e+=String.fromCharCode(i);e=document.createTextNode(e),c.parentNode.replaceChild(e,c)}}}catch(u){}}();/* ]]&gt; */&lt;/script&gt;\nFormat settings, CABAC         : Yes\nFormat settings, ReFrames      : 5 frames\nCodec ID                       : V_MPEG4/ISO/AVC\nDuration                       : 40mn 12s\nBit rate mode                  : Variable\nBit rate                       : 2 089 Kbps\nWidth                          : 1 280 pixels\nHeight                         : 720 pixels\nDisplay aspect ratio           : 16:9\nFrame rate mode                : Constant\nFrame rate                     : 25.000 fps\nColor space                    : YUV\nChroma subsampling             : 4:2:0\nBit depth                      : 8 bits\nScan type                      : Progressive\nBits/(Pixel*Frame)             : 0.091\nStream size                    : 601 MiB (90%)\nWriting library                : x264 core 142 r2479 dd79a61\nDefault                        : Yes\nForced                         : No\n\nAudio\nID                             : 2\nFormat                         : MPEG Audio\nFormat version                 : Version 1\nFormat profile                 : Layer 2\nCodec ID                       : A_MPEG/L2\nCodec ID/Hint                  : MP2\nDuration                       : 40mn 12s\nBit rate mode                  : Constant\nBit rate                       : 192 Kbps\nChannel(s)                     : 2 channels\nSampling rate                  : 48.0 KHz\nCompression mode               : Lossy\nStream size                    : 55.2 MiB (8%)\nLanguage                       : English\nDefault                        : Yes\nForced                         : No","torrent":{"xt":"urn:btih:39dcfb3ebac7f4c66a74b36125e15b55c8eb714f","amp;dn":"Stalker.S01E06.DKSubs.Hardcoded.720p.HDTV-pir8","amp;tr":["udp%3A%2F%2Ftracker.openbittorrent.com%3A80","udp%3A%2F%2Fopen.demonii.com%3A1337","udp%3A%2F%2Ftracker.coppersurfer.tk%3A6969","udp%3A%2F%2Fexodus.desync.com%3A6969"],"infoHash":"39dcfb3ebac7f4c66a74b36125e15b55c8eb714f","infoHashBuffer":{"type":"Buffer","data":[57,220,251,62,186,199,244,198,106,116,179,97,37,225,91,85,200,235,113,79]},"announce":[],"urlList":[]}}